# xmcd
#
# Track frame offsets:
#	183
#	15988
#	38595
#	56475
#	78380
#	94238
#	118283
#	134803
#	153493
#	171665
#	188383
#	206798
#	219728
#	240370
#	256700
#	276503
#
# Disc length: 3868
#
# Revision: 2
# Processed by: cddbd v1.5.1PL0 Copyright (c) Steve Scherf et al.
# Submitted via: audiograbber 1.83.01
# Normalized: r1:DSETVAR1
#
DISCID=e40f1a10
DTITLE=Various Artist - Hit Parade des années 80 (83-84-85)
DYEAR=1990
DGENRE=Pop
TTITLE0=Claude Barzotti - Le Rital
TTITLE1=JJ Goldman - Envole-moi
TTITLE2=Julien Clerc - Lili voulait aller danser
TTITLE3=Bruna Giraldi - Il y a de l'amour dans l'air
TTITLE4=Christophe - Succès fou
TTITLE5=Bandolero - Paris Latino
TTITLE6=Alain Chamfort - Bons baisiers d'ici
TTITLE7=France Gall - Débranche
TTITLE8=Pierre Rapsat - Illusions
TTITLE9=Cookie Dingler - Femme libérée
TTITLE10=Gilbert Montagné - On va s'aimer
TTITLE11=Jacques Zegers - Avanti la vie
TTITLE12=Rita Mitsouko - Marcia Baila
TTITLE13=Marc Lavoine - Elle a les yeyx revolver
TTITLE14=JJ Goldman - Je te donne
TTITLE15=Michel Jonasz - La boîte de jazz
EXTD=
EXTT0=
EXTT1=
EXTT2=
EXTT3=
EXTT4=
EXTT5=
EXTT6=
EXTT7=
EXTT8=
EXTT9=
EXTT10=
EXTT11=
EXTT12=
EXTT13=
EXTT14=
EXTT15=
PLAYORDER=
